<svg xmlns="http://www.w3.org/2000/svg" viewBox="0 0 300 200" width="300" height="200" role="img" aria-label="stacked bar chart">
  <rect width="300" height="200" fill="#F5F7FB"/>
    <g fill="#9aa5b5" font-size="9" font-family="Inter,Arial" text-anchor="end"><text x="78" y="50">Breast</text><text x="78" y="78">Prostate</text><text x="78" y="106">Colorectal</text><text x="78" y="134">Lung</text><text x="78" y="162">Bladder</text></g>
    <rect x="86" y="40" width="79.8" height="16" fill="#0E47CB"/><rect x="165.8" y="40" width="62.7" height="16" fill="#0E47CB" opacity=".55"/><rect x="228.5" y="40" width="47.5" height="16" fill="#0E47CB" opacity=".25"/><rect x="86" y="68" width="104.50000000000001" height="16" fill="#0E47CB"/><rect x="190.5" y="68" width="53.2" height="16" fill="#0E47CB" opacity=".55"/><rect x="243.7" y="68" width="32.29999999999998" height="16" fill="#0E47CB" opacity=".25"/><rect x="86" y="96" width="68.39999999999999" height="16" fill="#0E47CB"/><rect x="154.39999999999998" y="96" width="57" height="16" fill="#0E47CB" opacity=".55"/><rect x="211.39999999999998" y="96" width="64.60000000000001" height="16" fill="#0E47CB" opacity=".25"/><rect x="86" y="124" width="47.5" height="16" fill="#0E47CB"/><rect x="133.5" y="124" width="66.5" height="16" fill="#0E47CB" opacity=".55"/><rect x="200" y="124" width="76" height="16" fill="#0E47CB" opacity=".25"/><rect x="86" y="152" width="91.2" height="16" fill="#0E47CB"/><rect x="177.2" y="152" width="60.800000000000004" height="16" fill="#0E47CB" opacity=".55"/><rect x="238" y="152" width="37.99999999999999" height="16" fill="#0E47CB" opacity=".25"/>
    <g font-size="8.5" font-family="Inter,Arial" fill="#6b7686"><rect x="90" y="184" width="9" height="9" fill="#0E47CB"/><text x="103" y="192">&lt;2 y</text><rect x="140" y="184" width="9" height="9" fill="#0E47CB" opacity=".55"/><text x="153" y="192">2–5 y</text><rect x="196" y="184" width="9" height="9" fill="#0E47CB" opacity=".25"/><text x="209" y="192">&gt;5 y</text></g>
</svg>